g ev10-mesh0_2
v -7.759335 5.72463 9.648295
v -7.46473 4.700989 9.648295
v -7.364075 5.4916 9.648295
v -7.25 4.700989 9.648295
v -7.25 5.72463 9.648295
v -7.03527 4.700989 9.648295
v -7.364075 6.06305 9.648295
v -7.57634 6.19965 9.648295
v -7.25 6.81437 9.648295
v -7.135925 5.4916 9.648295
v -6.740665 5.72463 9.648295
v -7.135925 6.06305 9.648295
v -6.92366 6.19965 9.648295
v -7.25 5.4916 9.76237
v -7.25 4.700989 9.863025
v -7.25 5.72463 10.15763
v -7.25 4.700989 9.648295
v -7.25 5.72463 9.648295
v -7.25 4.700989 9.43357
v -7.25 6.06305 9.76237
v -7.25 6.19965 9.97464
v -7.25 6.81437 9.648295
v -7.25 5.4916 9.534225
v -7.25 5.72463 9.13896
v -7.25 6.06305 9.534225
v -7.25 6.19965 9.321955
v -7.364075 5.4916 9.648295
v -7.46473 4.700989 9.648295
v -7.759335 5.72463 9.648295
v -7.25 4.700989 9.648295
v -7.25 5.72463 9.648295
v -7.03527 4.700989 9.648295
v -7.364075 6.06305 9.648295
v -7.57634 6.19965 9.648295
v -7.25 6.81437 9.648295
v -7.135925 5.4916 9.648295
v -6.740665 5.72463 9.648295
v -7.135925 6.06305 9.648295
v -6.92366 6.19965 9.648295
v -7.25 5.72463 10.15763
v -7.25 4.700989 9.863025
v -7.25 5.4916 9.76237
v -7.25 4.700989 9.648295
v -7.25 5.72463 9.648295
v -7.25 4.700989 9.43357
v -7.25 6.06305 9.76237
v -7.25 6.19965 9.97464
v -7.25 6.81437 9.648295
v -7.25 5.4916 9.534225
v -7.25 5.72463 9.13896
v -7.25 6.06305 9.534225
v -7.25 6.19965 9.321955
v 6.840665 5.72463 9.648295
v 7.13527 4.700989 9.648295
v 7.235925 5.4916 9.648295
v 7.35 4.700989 9.648295
v 7.35 5.72463 9.648295
v 7.56473 4.700989 9.648295
v 7.235925 6.06305 9.648295
v 7.02366 6.19965 9.648295
v 7.35 6.81437 9.648295
v 7.464075 5.4916 9.648295
v 7.859335 5.72463 9.648295
v 7.464075 6.06305 9.648295
v 7.67634 6.19965 9.648295
v 7.35 5.4916 9.76237
v 7.35 4.700989 9.863025
v 7.35 5.72463 10.15763
v 7.35 4.700989 9.648295
v 7.35 5.72463 9.648295
v 7.35 4.700989 9.43357
v 7.35 6.06305 9.76237
v 7.35 6.19965 9.97464
v 7.35 6.81437 9.648295
v 7.35 5.4916 9.534225
v 7.35 5.72463 9.13896
v 7.35 6.06305 9.534225
v 7.35 6.19965 9.321955
v 7.235925 5.4916 9.648295
v 7.13527 4.700989 9.648295
v 6.840665 5.72463 9.648295
v 7.35 4.700989 9.648295
v 7.35 5.72463 9.648295
v 7.56473 4.700989 9.648295
v 7.235925 6.06305 9.648295
v 7.02366 6.19965 9.648295
v 7.35 6.81437 9.648295
v 7.464075 5.4916 9.648295
v 7.859335 5.72463 9.648295
v 7.464075 6.06305 9.648295
v 7.67634 6.19965 9.648295
v 7.35 5.72463 10.15763
v 7.35 4.700989 9.863025
v 7.35 5.4916 9.76237
v 7.35 4.700989 9.648295
v 7.35 5.72463 9.648295
v 7.35 4.700989 9.43357
v 7.35 6.06305 9.76237
v 7.35 6.19965 9.97464
v 7.35 6.81437 9.648295
v 7.35 5.4916 9.534225
v 7.35 5.72463 9.13896
v 7.35 6.06305 9.534225
v 7.35 6.19965 9.321955
vt 0.6303498 0.6501703
vt 0.7074918 0.7730886
vt 0.6908796 0.6657861
vt 0.7356042 0.7649977
vt 0.6970331 0.6309776
vt 0.7637182 0.7569075
vt 0.6693462 0.5909703
vt 0.6364084 0.5810837
vt 0.6559721 0.4883053
vt 0.7207496 0.6571898
vt 0.7637182 0.6117863
vt 0.6992173 0.5823734
vt 0.7218607 0.5564905
vt 0.4178756 0.3076916
vt 0.4344887 0.2003886
vt 0.3573454 0.3233075
vt 0.4626019 0.2084813
vt 0.4240297 0.3425007
vt 0.4907146 0.2165709
vt 0.3963426 0.382508
vt 0.3634048 0.3923941
vt 0.3829673 0.4851737
vt 0.4477454 0.3162885
vt 0.4907148 0.361692
vt 0.4262125 0.391105
vt 0.4488569 0.4169885
vt 0.5543778 0.3076916
vt 0.570991 0.2003886
vt 0.4938476 0.3233075
vt 0.5991033 0.20848
vt 0.5605307 0.3425007
vt 0.6272169 0.2165709
vt 0.5328448 0.382508
vt 0.4999069 0.3923947
vt 0.5194686 0.4851725
vt 0.5842477 0.3162885
vt 0.6272169 0.3616926
vt 0.5627146 0.391105
vt 0.5853592 0.4169885
vt 0.7637182 0.3616908
vt 0.7637181 0.2165703
vt 0.7207496 0.3162879
vt 0.7356057 0.2084794
vt 0.6970342 0.3425001
vt 0.7074921 0.2003886
vt 0.6992174 0.3911043
vt 0.7218608 0.4169872
vt 0.6559733 0.4851725
vt 0.6908798 0.307691
vt 0.6303498 0.3233075
vt 0.6693475 0.3825074
vt 0.6364097 0.3923941
vt 0.6303498 0.6501703
vt 0.7074918 0.7730886
vt 0.6908796 0.6657861
vt 0.7356042 0.7649977
vt 0.6970331 0.6309776
vt 0.7637182 0.7569075
vt 0.6693462 0.5909703
vt 0.6364084 0.5810837
vt 0.6559721 0.4883053
vt 0.7207496 0.6571898
vt 0.7637182 0.6117863
vt 0.6992173 0.5823734
vt 0.7218607 0.5564905
vt 0.4178756 0.3076916
vt 0.4344887 0.2003886
vt 0.3573454 0.3233075
vt 0.4626019 0.2084813
vt 0.4240297 0.3425007
vt 0.4907146 0.2165709
vt 0.3963426 0.382508
vt 0.3634048 0.3923941
vt 0.3829673 0.4851737
vt 0.4477454 0.3162885
vt 0.4907148 0.361692
vt 0.4262125 0.391105
vt 0.4488569 0.4169885
vt 0.5543778 0.3076916
vt 0.570991 0.2003886
vt 0.4938476 0.3233075
vt 0.5991033 0.20848
vt 0.5605307 0.3425007
vt 0.6272169 0.2165709
vt 0.5328448 0.382508
vt 0.4999069 0.3923947
vt 0.5194686 0.4851725
vt 0.5842477 0.3162885
vt 0.6272169 0.3616926
vt 0.5627146 0.391105
vt 0.5853592 0.4169885
vt 0.7637182 0.3616908
vt 0.7637181 0.2165703
vt 0.7207496 0.3162879
vt 0.7356057 0.2084794
vt 0.6970342 0.3425001
vt 0.7074921 0.2003886
vt 0.6992174 0.3911043
vt 0.7218608 0.4169872
vt 0.6559733 0.4851725
vt 0.6908798 0.307691
vt 0.6303498 0.3233075
vt 0.6693475 0.3825074
vt 0.6364097 0.3923941
vn 0 0 -1
vn 0 0 -1
vn 0 0 -1
vn 0 0 -1
vn 0 0 -1
vn 0 0 -1
vn 0 0 -1
vn 0 0 -1
vn 0 0 -1
vn 0 0 -1
vn 0 0 -1
vn 0 0 -1
vn 0 0 -1
vn 1 0 0
vn 1 0 0
vn 1 0 0
vn 1 0 0
vn 1 0 0
vn 1 0 0
vn 1 0 0
vn 1 0 0
vn 1 0 0
vn 1 0 0
vn 1 0 0
vn 1 0 0
vn 1 0 0
vn 0 0 1
vn 0 0 1
vn 0 0 1
vn 0 0 1
vn 0 0 1
vn 0 0 1
vn 0 0 1
vn 0 0 1
vn 0 0 1
vn 0 0 1
vn 0 0 1
vn 0 0 1
vn 0 0 1
vn -1 0 0
vn -1 0 0
vn -1 0 0
vn -1 0 0
vn -1 0 0
vn -1 0 0
vn -1 0 0
vn -1 0 0
vn -1 0 0
vn -1 0 0
vn -1 0 0
vn -1 0 0
vn -1 0 0
vn 0 0 -1
vn 0 0 -1
vn 0 0 -1
vn 0 0 -1
vn 0 0 -1
vn 0 0 -1
vn 0 0 -1
vn 0 0 -1
vn 0 0 -1
vn 0 0 -1
vn 0 0 -1
vn 0 0 -1
vn 0 0 -1
vn 1 0 0
vn 1 0 0
vn 1 0 0
vn 1 0 0
vn 1 0 0
vn 1 0 0
vn 1 0 0
vn 1 0 0
vn 1 0 0
vn 1 0 0
vn 1 0 0
vn 1 0 0
vn 1 0 0
vn 0 0 1
vn 0 0 1
vn 0 0 1
vn 0 0 1
vn 0 0 1
vn 0 0 1
vn 0 0 1
vn 0 0 1
vn 0 0 1
vn 0 0 1
vn 0 0 1
vn 0 0 1
vn 0 0 1
vn -1 0 0
vn -1 0 0
vn -1 0 0
vn -1 0 0
vn -1 0 0
vn -1 0 0
vn -1 0 0
vn -1 0 0
vn -1 0 0
vn -1 0 0
vn -1 0 0
vn -1 0 0
vn -1 0 0
g ev10-mesh0_2_0
f 3/3/3 2/2/2 1/1/1
f 3/3/3 4/4/4 2/2/2
f 5/5/5 4/4/4 3/3/3
f 5/5/5 6/6/6 4/4/4
f 7/7/7 5/5/5 3/3/3
f 7/7/7 3/3/3 8/8/8
f 9/9/9 5/5/5 7/7/7
f 10/10/10 6/6/6 5/5/5
f 9/9/9 10/10/10 5/5/5
f 11/11/11 6/6/6 10/10/10
f 12/12/12 10/10/10 9/9/9
f 13/13/13 10/10/10 12/12/12
f 16/16/16 15/15/15 14/14/14
f 15/15/15 17/17/17 14/14/14
f 14/14/14 17/17/17 18/18/18
f 17/17/17 19/19/19 18/18/18
f 14/14/14 18/18/18 20/20/20
f 21/21/21 14/14/14 20/20/20
f 20/20/20 18/18/18 22/22/22
f 18/18/18 19/19/19 23/23/23
f 18/18/18 23/23/23 22/22/22
f 23/23/23 19/19/19 24/24/24
f 22/22/22 23/23/23 25/25/25
f 25/25/25 23/23/23 26/26/26
f 29/29/29 28/28/28 27/27/27
f 28/28/28 30/30/30 27/27/27
f 27/27/27 30/30/30 31/31/31
f 30/30/30 32/32/32 31/31/31
f 27/27/27 31/31/31 33/33/33
f 34/34/34 27/27/27 33/33/33
f 33/33/33 31/31/31 35/35/35
f 31/31/31 32/32/32 36/36/36
f 31/31/31 36/36/36 35/35/35
f 36/36/36 32/32/32 37/37/37
f 35/35/35 36/36/36 38/38/38
f 38/38/38 36/36/36 39/39/39
f 42/42/42 41/41/41 40/40/40
f 42/42/42 43/43/43 41/41/41
f 44/44/44 43/43/43 42/42/42
f 44/44/44 45/45/45 43/43/43
f 46/46/46 44/44/44 42/42/42
f 46/46/46 42/42/42 47/47/47
f 48/48/48 44/44/44 46/46/46
f 49/49/49 45/45/45 44/44/44
f 48/48/48 49/49/49 44/44/44
f 50/50/50 45/45/45 49/49/49
f 51/51/51 49/49/49 48/48/48
f 52/52/52 49/49/49 51/51/51
f 55/55/55 54/54/54 53/53/53
f 55/55/55 56/56/56 54/54/54
f 57/57/57 56/56/56 55/55/55
f 57/57/57 58/58/58 56/56/56
f 59/59/59 57/57/57 55/55/55
f 59/59/59 55/55/55 60/60/60
f 61/61/61 57/57/57 59/59/59
f 62/62/62 58/58/58 57/57/57
f 61/61/61 62/62/62 57/57/57
f 63/63/63 58/58/58 62/62/62
f 64/64/64 62/62/62 61/61/61
f 65/65/65 62/62/62 64/64/64
f 68/68/68 67/67/67 66/66/66
f 67/67/67 69/69/69 66/66/66
f 66/66/66 69/69/69 70/70/70
f 69/69/69 71/71/71 70/70/70
f 66/66/66 70/70/70 72/72/72
f 73/73/73 66/66/66 72/72/72
f 72/72/72 70/70/70 74/74/74
f 70/70/70 71/71/71 75/75/75
f 70/70/70 75/75/75 74/74/74
f 75/75/75 71/71/71 76/76/76
f 74/74/74 75/75/75 77/77/77
f 77/77/77 75/75/75 78/78/78
f 81/81/81 80/80/80 79/79/79
f 80/80/80 82/82/82 79/79/79
f 79/79/79 82/82/82 83/83/83
f 82/82/82 84/84/84 83/83/83
f 79/79/79 83/83/83 85/85/85
f 86/86/86 79/79/79 85/85/85
f 85/85/85 83/83/83 87/87/87
f 83/83/83 84/84/84 88/88/88
f 83/83/83 88/88/88 87/87/87
f 88/88/88 84/84/84 89/89/89
f 87/87/87 88/88/88 90/90/90
f 90/90/90 88/88/88 91/91/91
f 94/94/94 93/93/93 92/92/92
f 94/94/94 95/95/95 93/93/93
f 96/96/96 95/95/95 94/94/94
f 96/96/96 97/97/97 95/95/95
f 98/98/98 96/96/96 94/94/94
f 98/98/98 94/94/94 99/99/99
f 100/100/100 96/96/96 98/98/98
f 101/101/101 97/97/97 96/96/96
f 100/100/100 101/101/101 96/96/96
f 102/102/102 97/97/97 101/101/101
f 103/103/103 101/101/101 100/100/100
f 104/104/104 101/101/101 103/103/103
