g ev5-mesh0_4
v -2.996232 -5.9443 65.8995
v -3.020701 -5.975375 65.1997
v -2.467456 -5.338955 65.51421
v -2.653637 -5.949095 64.7346
v -2.172427 -5.88524 64.85485
v -2.467456 -5.338955 65.51421
v -1.939455 -5.83197 65.4683
v -2.129061 -5.829391 66.11345
v -2.467456 -5.338955 65.51421
v -2.59908 -5.879355 66.3058
v -2.996232 -5.9443 65.8995
v -2.467456 -5.338955 65.51421
v -3.020701 -5.975375 65.1997
v -2.653637 -5.949095 64.7346
v -2.467456 -5.338955 65.51421
v -2.172427 -5.88524 64.85485
v -1.939455 -5.83197 65.4683
v -2.467456 -5.338955 65.51421
v -2.129061 -5.829391 66.11345
v -2.59908 -5.879355 66.3058
v -2.467456 -5.338955 65.51421
v -2.233255 -12.67944 66.1199
v -2.047495 -15.24611 65.93005
v -2.665929 -12.72845 66.1872
v -2.453506 -15.29965 66.2803
v -2.193498 -18.74895 66.20595
v -2.680879 -18.7986 66.27705
v -3.047918 -15.31528 65.39795
v -3.026141 -18.77994 65.77665
v -2.969838 -18.70733 65.0819
v -2.898452 -15.33046 66.04255
v -2.919283 -12.7617 65.12435
v -2.970806 -12.76533 65.7433
v -2.737159 -10.73239 65.93155
v -2.879358 -10.72956 65.47075
v -2.665929 -12.72845 66.1872
v -2.453506 -15.29965 66.2803
v -2.970806 -12.76533 65.7433
v -2.898452 -15.33046 66.04255
v -2.680879 -18.7986 66.27705
v -3.026141 -18.77994 65.77665
v -2.102139 -10.71124 65.2558
v -2.233255 -12.67944 66.1199
v -2.113792 -10.71766 65.75885
v -1.999674 -12.65488 65.59275
v -1.987451 -15.21024 65.25695
v -2.047495 -15.24611 65.93005
v -1.931406 -18.66856 65.61775
v -2.193498 -18.74895 66.20595
v -2.396382 -10.72696 66.06005
v -2.970806 -12.76533 65.7433
v -2.737159 -10.73239 65.93155
v -2.665929 -12.72845 66.1872
v -2.879358 -10.72956 65.47075
v -2.550178 -12.72027 64.79375
v -2.715937 -10.72046 65.02395
v -2.919283 -12.7617 65.12435
v -3.047918 -15.31528 65.39795
v -2.789484 -15.26559 64.8297
v -2.969838 -18.70733 65.0819
v -2.553406 -18.6354 64.7149
v -2.369668 -10.71231 64.9286
v -1.999674 -12.65488 65.59275
v -2.102139 -10.71124 65.2558
v -2.140276 -12.6728 65.0024
v -2.317048 -15.21891 64.7675
v -1.987451 -15.21024 65.25695
v -2.090799 -18.61814 64.95444
v -1.931406 -18.66856 65.61775
v -2.113792 -10.71766 65.75885
v -2.665929 -12.72845 66.1872
v -2.396382 -10.72696 66.06005
v -2.233255 -12.67944 66.1199
v -2.715937 -10.72046 65.02395
v -2.140276 -12.6728 65.0024
v -2.369668 -10.71231 64.9286
v -2.550178 -12.72027 64.79375
v -2.789484 -15.26559 64.8297
v -2.317048 -15.21891 64.7675
v -2.553406 -18.6354 64.7149
v -2.090799 -18.61814 64.95444
v -2.996232 -5.9443 65.8995
v -2.898681 -7.893265 65.36145
v -3.020701 -5.975375 65.1997
v -2.804855 -7.88496 65.89055
v -2.653637 -5.949095 64.7346
v -2.286433 -7.841035 64.916
v -2.172427 -5.88524 64.85485
v -2.66731 -7.87367 64.9271
v -1.939455 -5.83197 65.4683
v -2.119658 -7.825995 65.86575
v -2.129061 -5.829391 66.11345
v -2.043674 -7.819845 65.33395
v -2.59908 -5.879355 66.3058
v -2.804855 -7.88496 65.89055
v -2.996232 -5.9443 65.8995
v -2.457606 -7.854965 66.11411
v -3.020701 -5.975375 65.1997
v -2.66731 -7.87367 64.9271
v -2.653637 -5.949095 64.7346
v -2.898681 -7.893265 65.36145
v -2.172427 -5.88524 64.85485
v -2.043674 -7.819845 65.33395
v -1.939455 -5.83197 65.4683
v -2.286433 -7.841035 64.916
v -2.129061 -5.829391 66.11345
v -2.457606 -7.854965 66.11411
v -2.59908 -5.879355 66.3058
v -2.119658 -7.825995 65.86575
v -1.580873 -20.41997 66.0615
v -1.931406 -18.66856 65.61775
v -1.628339 -20.39604 64.84715
v -2.193498 -18.74895 66.20595
v -2.323306 -20.37977 64.1417
v -2.553406 -18.6354 64.7149
v -3.14387 -20.38309 64.47825
v -2.090799 -18.61814 64.95444
v -2.969838 -18.70733 65.0819
v -3.055409 -20.42522 66.66855
v -3.469425 -20.40312 65.6049
v -3.026141 -18.77994 65.77665
v -2.680879 -18.7986 66.27705
v -1.580873 -20.41997 66.0615
v -2.215921 -20.43299 66.8712
v -2.193498 -18.74895 66.20595
v -1.931406 -18.66856 65.61775
v -2.323306 -20.37977 64.1417
v -1.628339 -20.39604 64.84715
v -2.090799 -18.61814 64.95444
v -2.553406 -18.6354 64.7149
v -3.469425 -20.40312 65.6049
v -3.14387 -20.38309 64.47825
v -2.969838 -18.70733 65.0819
v -3.026141 -18.77994 65.77665
v -2.215921 -20.43299 66.8712
v -3.055409 -20.42522 66.66855
v -2.680879 -18.7986 66.27705
v -2.119658 -7.825995 65.86575
v -2.396382 -10.72696 66.06005
v -2.457606 -7.854965 66.11411
v -2.113792 -10.71766 65.75885
v -2.286433 -7.841035 64.916
v -2.102139 -10.71124 65.2558
v -2.043674 -7.819845 65.33395
v -2.369668 -10.71231 64.9286
v -2.898681 -7.893265 65.36145
v -2.715937 -10.72046 65.02395
v -2.66731 -7.87367 64.9271
v -2.879358 -10.72956 65.47075
v -2.457606 -7.854965 66.11411
v -2.737159 -10.73239 65.93155
v -2.804855 -7.88496 65.89055
v -2.396382 -10.72696 66.06005
v -2.043674 -7.819845 65.33395
v -2.113792 -10.71766 65.75885
v -2.119658 -7.825995 65.86575
v -2.102139 -10.71124 65.2558
v -2.66731 -7.87367 64.9271
v -2.369668 -10.71231 64.9286
v -2.286433 -7.841035 64.916
v -2.715937 -10.72046 65.02395
v -2.804855 -7.88496 65.89055
v -2.879358 -10.72956 65.47075
v -2.898681 -7.893265 65.36145
v -2.737159 -10.73239 65.93155
v -1.628339 -20.39604 64.84715
v -2.323306 -20.37977 64.1417
v -1.580873 -20.41997 66.0615
v -2.215921 -20.43299 66.8712
v -3.055409 -20.42522 66.66855
v -3.14387 -20.38309 64.47825
v -3.469425 -20.40312 65.6049
vt 0.0818198 0.4388904
vt 0.07243485 0.432225
vt 0.05647534 0.455235
vt 0.06370235 0.4295704
vt 0.05510491 0.429563
vt 0.05647534 0.455235
vt 0.04609905 0.4317284
vt 0.03554469 0.4366112
vt 0.05647534 0.455235
vt 0.09317689 0.455235
vt 0.0818198 0.4388904
vt 0.05647534 0.455235
vt 0.07243485 0.432225
vt 0.06370235 0.4295704
vt 0.05647534 0.455235
vt 0.05510491 0.429563
vt 0.04609905 0.4317284
vt 0.05647534 0.455235
vt 0.03554469 0.4366112
vt 0.02054905 0.4483875
vt 0.05647534 0.455235
vt 0.03699468 0.2696377
vt 0.04834403 0.2056559
vt 0.02135138 0.2681176
vt 0.031248 0.2036557
vt 0.04229266 0.1103952
vt 0.02358724 0.1123373
vt 0.1168956 0.2115712
vt 0.1443038 0.1215294
vt 0.1246411 0.1178047
vt 0.1338033 0.2143293
vt 0.09899043 0.2734078
vt 0.1142809 0.2760262
vt 0.110935 0.3292431
vt 0.09776748 0.3268648
vt 0.1293066 0.2803101
vt 0.150603 0.2186564
vt 0.1142809 0.2760262
vt 0.1338033 0.2143293
vt 0.1618222 0.1282534
vt 0.1443038 0.1215294
vt 0.0577243 0.3219857
vt 0.03699468 0.2696377
vt 0.0444975 0.3205221
vt 0.05249818 0.271083
vt 0.06546548 0.2077037
vt 0.04834403 0.2056559
vt 0.0623432 0.1114786
vt 0.04229266 0.1103952
vt 0.1236491 0.3321124
vt 0.1142809 0.2760262
vt 0.110935 0.3292431
vt 0.1293066 0.2803101
vt 0.09776748 0.3268648
vt 0.08352139 0.2723213
vt 0.08442231 0.3250139
vt 0.09899043 0.2734078
vt 0.1168956 0.2115712
vt 0.09978768 0.210134
vt 0.1246411 0.1178047
vt 0.1039893 0.1157494
vt 0.07104263 0.3234647
vt 0.05249818 0.271083
vt 0.0577243 0.3219857
vt 0.06801412 0.2718766
vt 0.08262502 0.2091401
vt 0.06546548 0.2077037
vt 0.08304449 0.1137299
vt 0.0623432 0.1114786
vt 0.0444975 0.3205221
vt 0.02135138 0.2681176
vt 0.03128159 0.319183
vt 0.03699468 0.2696377
vt 0.08442231 0.3250139
vt 0.06801412 0.2718766
vt 0.07104263 0.3234647
vt 0.08352139 0.2723213
vt 0.09978768 0.210134
vt 0.08262502 0.2091401
vt 0.1039893 0.1157494
vt 0.08304449 0.1137299
vt 0.0818198 0.4388904
vt 0.08462452 0.3987007
vt 0.07243485 0.432225
vt 0.09771802 0.4021466
vt 0.06370235 0.4295704
vt 0.05931947 0.3953366
vt 0.05510491 0.429563
vt 0.07190317 0.3964683
vt 0.04609905 0.4317284
vt 0.03328538 0.3944699
vt 0.03554469 0.4366112
vt 0.04660882 0.3948349
vt 0.09317689 0.455235
vt 0.09771802 0.4021466
vt 0.0818198 0.4388904
vt 0.1111509 0.4060167
vt 0.07243485 0.432225
vt 0.07190317 0.3964683
vt 0.06370235 0.4295704
vt 0.08462452 0.3987007
vt 0.05510491 0.429563
vt 0.04660882 0.3948349
vt 0.04609905 0.4317284
vt 0.05931947 0.3953366
vt 0.03554469 0.4366112
vt 0.0186656 0.3939093
vt 0.02054905 0.4483875
vt 0.03328538 0.3944699
vt 0.05174644 0.06178228
vt 0.0623432 0.1114786
vt 0.07906277 0.06191562
vt 0.04229266 0.1103952
vt 0.1057408 0.06510492
vt 0.1039893 0.1157494
vt 0.1318211 0.07067618
vt 0.08304449 0.1137299
vt 0.1246411 0.1178047
vt 0.1813979 0.09173885
vt 0.1572318 0.07904147
vt 0.1443038 0.1215294
vt 0.02358724 0.1123373
vt 0.05174644 0.06178228
vt 0.02390351 0.06631805
vt 0.04229266 0.1103952
vt 0.0623432 0.1114786
vt 0.1057408 0.06510492
vt 0.07906277 0.06191562
vt 0.08304449 0.1137299
vt 0.1039893 0.1157494
vt 0.1572318 0.07904147
vt 0.1318211 0.07067618
vt 0.1246411 0.1178047
vt 0.1443038 0.1215294
vt 0.2023435 0.1113426
vt 0.1813979 0.09173885
vt 0.1618222 0.1282534
vt 0.03328538 0.3944699
vt 0.03128159 0.319183
vt 0.0186656 0.3939093
vt 0.0444975 0.3205221
vt 0.05931947 0.3953366
vt 0.0577243 0.3219857
vt 0.04660882 0.3948349
vt 0.07104263 0.3234647
vt 0.08462452 0.3987007
vt 0.08442231 0.3250139
vt 0.07190317 0.3964683
vt 0.09776748 0.3268648
vt 0.1111509 0.4060167
vt 0.110935 0.3292431
vt 0.09771802 0.4021466
vt 0.1236491 0.3321124
vt 0.04660882 0.3948349
vt 0.0444975 0.3205221
vt 0.03328538 0.3944699
vt 0.0577243 0.3219857
vt 0.07190317 0.3964683
vt 0.07104263 0.3234647
vt 0.05931947 0.3953366
vt 0.08442231 0.3250139
vt 0.09771802 0.4021466
vt 0.09776748 0.3268648
vt 0.08462452 0.3987007
vt 0.110935 0.3292431
vt 0.06555883 0.03717499
vt 0.05493052 0.01099521
vt 0.05174644 0.06178228
vt 0.02390351 0.06631805
vt 0.002968602 0.04740214
vt 0.02780166 0.002968602
vt 0.004657875 0.01921643
vn -0.7540116 0.6568551 -0.00280166
vn -0.7540116 0.6568551 -0.00280166
vn -0.7540116 0.6568551 -0.00280166
vn 0.05216063 0.7803312 -0.6231873
vn 0.05216063 0.7803312 -0.6231873
vn 0.05216063 0.7803312 -0.6231873
vn 0.6782424 0.7080796 0.1964959
vn 0.6782424 0.7080796 0.1964959
vn 0.6782424 0.7080796 0.1964959
vn -0.5406535 0.7339424 0.4111232
vn -0.5406535 0.7339424 0.4111232
vn -0.5406535 0.7339424 0.4111232
vn -0.5755 0.7050517 -0.4143693
vn -0.5755 0.7050517 -0.4143693
vn -0.5755 0.7050517 -0.4143693
vn 0.6361356 0.709507 -0.3032018
vn 0.6361356 0.709507 -0.3032018
vn 0.6361356 0.709507 -0.3032018
vn 0.1494771 0.8048837 0.5742985
vn 0.1494771 0.8048837 0.5742985
vn 0.1494771 0.8048837 0.5742985
vn 0.4438909 0.01752832 0.8959094
vn 0.4438909 0.01752832 0.8959094
vn 0.4438909 0.01752832 0.8959094
vn 0.4438909 0.01752832 0.8959094
vn 0.4253484 0.01255758 0.9049426
vn 0.4253484 0.01255758 0.9049426
vn -0.9967945 0.0196388 0.07755559
vn -0.9975827 0.001324282 0.06947643
vn -0.9975827 0.001324282 0.06947643
vn -0.9967945 0.0196388 0.07755559
vn -0.9967945 0.0196388 0.07755559
vn -0.9967945 0.0196388 0.07755559
vn -0.9949052 0.05592296 0.08388183
vn -0.9949052 0.05592296 0.08388183
vn -0.6734775 0.01910681 0.7389606
vn -0.6734775 0.01910681 0.7389606
vn -0.6734775 0.01910681 0.7389606
vn -0.6734775 0.01910681 0.7389606
vn -0.6826528 0.006579087 0.7307131
vn -0.6826528 0.006579087 0.7307131
vn 0.9718847 0.03732337 0.2324804
vn 0.9711189 0.01308597 0.2382369
vn 0.9718847 0.03732337 0.2324804
vn 0.9711189 0.01308597 0.2382369
vn 0.9711189 0.01308597 0.2382369
vn 0.9711189 0.01308597 0.2382369
vn 0.9686221 0.01019632 0.2483285
vn 0.9686221 0.01019632 0.2483285
vn -0.6642594 0.07158121 0.7440669
vn -0.6642594 0.07158121 0.7440669
vn -0.6642594 0.07158121 0.7440669
vn -0.6642594 0.07158121 0.7440669
vn -0.8254156 0.05459437 -0.5618796
vn -0.8208539 0.02459603 -0.5706083
vn -0.8254156 0.05459437 -0.5618796
vn -0.8208539 0.02459603 -0.5706083
vn -0.8208539 0.02459603 -0.5706083
vn -0.8208539 0.02459603 -0.5706083
vn -0.8108928 -0.0003914728 -0.5851946
vn -0.8108928 -0.0003914728 -0.5851946
vn 0.9128717 0.03479628 -0.4067608
vn 0.9166064 0.01512716 -0.3995046
vn 0.9128717 0.03479628 -0.4067608
vn 0.9166064 0.01512716 -0.3995046
vn 0.9166064 0.01512716 -0.3995046
vn 0.9166064 0.01512716 -0.3995046
vn 0.9206648 0.006726981 -0.3902959
vn 0.9206648 0.006726981 -0.3902959
vn 0.4527924 0.06510219 0.889236
vn 0.4527924 0.06510219 0.889236
vn 0.4527924 0.06510219 0.889236
vn 0.4527924 0.06510219 0.889236
vn 0.1440791 0.05339766 -0.9881244
vn 0.1610586 0.02538945 -0.9866182
vn 0.1440791 0.05339766 -0.9881244
vn 0.1610586 0.02538945 -0.9866182
vn 0.1610586 0.02538945 -0.9866182
vn 0.1610586 0.02538945 -0.9866182
vn 0.1861836 0.002246234 -0.9825124
vn 0.1861836 0.002246234 -0.9825124
vn -0.9922282 -0.07671021 0.09797296
vn -0.9922282 -0.07671021 0.09797296
vn -0.9922282 -0.07671021 0.09797296
vn -0.9922282 -0.07671021 0.09797296
vn 0.1329268 -0.06900536 -0.9887207
vn 0.1329268 -0.06900536 -0.9887207
vn 0.1329268 -0.06900536 -0.9887207
vn 0.1329268 -0.06900536 -0.9887207
vn 0.9745458 -0.0442646 0.2197748
vn 0.9745458 -0.0442646 0.2197748
vn 0.9745458 -0.0442646 0.2197748
vn 0.9745458 -0.0442646 0.2197748
vn -0.6361771 -0.09331291 0.7658795
vn -0.6361771 -0.09331291 0.7658795
vn -0.6361771 -0.09331291 0.7658795
vn -0.6361771 -0.09331291 0.7658795
vn -0.8284857 -0.07452606 -0.5550292
vn -0.8284857 -0.07452606 -0.5550292
vn -0.8284857 -0.07452606 -0.5550292
vn -0.8284857 -0.07452606 -0.5550292
vn 0.9083956 -0.04254854 -0.4159413
vn 0.9083956 -0.04254854 -0.4159413
vn 0.9083956 -0.04254854 -0.4159413
vn 0.9083956 -0.04254854 -0.4159413
vn 0.48326 -0.0781088 0.8719856
vn 0.48326 -0.0781088 0.8719856
vn 0.48326 -0.0781088 0.8719856
vn 0.48326 -0.0781088 0.8719856
vn 0.9657375 0.2257292 0.1280526
vn 0.9657375 0.2257292 0.1280526
vn 0.9657375 0.2257292 0.1280526
vn 0.9657375 0.2257292 0.1280526
vn -0.07670525 0.3021163 -0.95018
vn -0.07670525 0.3021163 -0.95018
vn -0.07670525 0.3021163 -0.95018
vn -0.07670525 0.3021163 -0.95018
vn -0.9493209 0.2374649 0.205913
vn -0.9493209 0.2374649 0.205913
vn -0.9493209 0.2374649 0.205913
vn -0.9493209 0.2374649 0.205913
vn 0.5801755 0.2925599 0.7601349
vn 0.5801755 0.2925599 0.7601349
vn 0.5801755 0.2925599 0.7601349
vn 0.5801755 0.2925599 0.7601349
vn 0.8276289 0.2457319 -0.504625
vn 0.8276289 0.2457319 -0.504625
vn 0.8276289 0.2457319 -0.504625
vn 0.8276289 0.2457319 -0.504625
vn -0.8748105 0.2420286 -0.4196768
vn -0.8748105 0.2420286 -0.4196768
vn -0.8748105 0.2420286 -0.4196768
vn -0.8748105 0.2420286 -0.4196768
vn -0.4803918 0.3082325 0.8211069
vn -0.4803918 0.3082325 0.8211069
vn -0.4803918 0.3082325 0.8211069
vn -0.4803918 0.3082325 0.8211069
vn 0.6633832 -0.01317645 0.7481639
vn 0.6633832 -0.01317645 0.7481639
vn 0.6633832 -0.01317645 0.7481639
vn 0.6633832 -0.01317645 0.7481639
vn 0.8251792 -0.01386405 -0.564701
vn 0.8251792 -0.01386405 -0.564701
vn 0.8251792 -0.01386405 -0.564701
vn 0.8251792 -0.01386405 -0.564701
vn -0.9124154 -0.0101396 -0.4091395
vn -0.9124154 -0.0101396 -0.4091395
vn -0.9124154 -0.0101396 -0.4091395
vn -0.9124154 -0.0101396 -0.4091395
vn -0.4549463 -0.01228504 0.8904341
vn -0.4549463 -0.01228504 0.8904341
vn -0.4549463 -0.01228504 0.8904341
vn -0.4549463 -0.01228504 0.8904341
vn 0.9963765 -0.01175797 0.08423513
vn 0.9963765 -0.01175797 0.08423513
vn 0.9963765 -0.01175797 0.08423513
vn 0.9963765 -0.01175797 0.08423513
vn -0.1439762 -0.01561705 -0.9894578
vn -0.1439762 -0.01561705 -0.9894578
vn -0.1439762 -0.01561705 -0.9894578
vn -0.1439762 -0.01561705 -0.9894578
vn -0.9726847 -0.008756288 0.231965
vn -0.9726847 -0.008756288 0.231965
vn -0.9726847 -0.008756288 0.231965
vn -0.9726847 -0.008756288 0.231965
vn -0.003959131 -0.999804 -0.01940392
vn -0.003959131 -0.999804 -0.01940392
vn -0.003959131 -0.999804 -0.01940392
vn -0.003959131 -0.999804 -0.01940392
vn -0.004589545 -0.999803 -0.01931398
vn -0.003981168 -0.9998103 -0.01907074
vn -0.003981168 -0.9998103 -0.01907074
g ev5-mesh0_4_0
f 3/3/3 2/2/2 1/1/1
f 6/6/6 5/5/5 4/4/4
f 9/9/9 8/8/8 7/7/7
f 12/12/12 11/11/11 10/10/10
f 15/15/15 14/14/14 13/13/13
f 18/18/18 17/17/17 16/16/16
f 21/21/21 20/20/20 19/19/19
f 24/24/24 23/23/23 22/22/22
f 25/25/25 23/23/23 24/24/24
f 25/25/25 26/26/26 23/23/23
f 27/27/27 26/26/26 25/25/25
f 30/30/30 29/29/29 28/28/28
f 28/28/28 29/29/29 31/31/31
f 28/28/28 31/31/31 32/32/32
f 32/32/32 31/31/31 33/33/33
f 34/34/34 32/32/32 33/33/33
f 35/35/35 32/32/32 34/34/34
f 38/38/38 37/37/37 36/36/36
f 39/39/39 37/37/37 38/38/38
f 39/39/39 40/40/40 37/37/37
f 41/41/41 40/40/40 39/39/39
f 44/44/44 43/43/43 42/42/42
f 42/42/42 43/43/43 45/45/45
f 43/43/43 46/46/46 45/45/45
f 47/47/47 46/46/46 43/43/43
f 47/47/47 48/48/48 46/46/46
f 49/49/49 48/48/48 47/47/47
f 52/52/52 51/51/51 50/50/50
f 50/50/50 51/51/51 53/53/53
f 56/56/56 55/55/55 54/54/54
f 54/54/54 55/55/55 57/57/57
f 55/55/55 58/58/58 57/57/57
f 59/59/59 58/58/58 55/55/55
f 59/59/59 60/60/60 58/58/58
f 61/61/61 60/60/60 59/59/59
f 64/64/64 63/63/63 62/62/62
f 62/62/62 63/63/63 65/65/65
f 63/63/63 66/66/66 65/65/65
f 67/67/67 66/66/66 63/63/63
f 67/67/67 68/68/68 66/66/66
f 69/69/69 68/68/68 67/67/67
f 72/72/72 71/71/71 70/70/70
f 70/70/70 71/71/71 73/73/73
f 76/76/76 75/75/75 74/74/74
f 74/74/74 75/75/75 77/77/77
f 75/75/75 78/78/78 77/77/77
f 79/79/79 78/78/78 75/75/75
f 79/79/79 80/80/80 78/78/78
f 81/81/81 80/80/80 79/79/79
f 84/84/84 83/83/83 82/82/82
f 82/82/82 83/83/83 85/85/85
f 88/88/88 87/87/87 86/86/86
f 86/86/86 87/87/87 89/89/89
f 92/92/92 91/91/91 90/90/90
f 90/90/90 91/91/91 93/93/93
f 96/96/96 95/95/95 94/94/94
f 94/94/94 95/95/95 97/97/97
f 100/100/100 99/99/99 98/98/98
f 98/98/98 99/99/99 101/101/101
f 104/104/104 103/103/103 102/102/102
f 102/102/102 103/103/103 105/105/105
f 108/108/108 107/107/107 106/106/106
f 106/106/106 107/107/107 109/109/109
f 112/112/112 111/111/111 110/110/110
f 110/110/110 111/111/111 113/113/113
f 116/116/116 115/115/115 114/114/114
f 114/114/114 115/115/115 117/117/117
f 120/120/120 119/119/119 118/118/118
f 118/118/118 119/119/119 121/121/121
f 124/124/124 123/123/123 122/122/122
f 122/122/122 123/123/123 125/125/125
f 128/128/128 127/127/127 126/126/126
f 126/126/126 127/127/127 129/129/129
f 132/132/132 131/131/131 130/130/130
f 130/130/130 131/131/131 133/133/133
f 136/136/136 135/135/135 134/134/134
f 134/134/134 135/135/135 137/137/137
f 140/140/140 139/139/139 138/138/138
f 138/138/138 139/139/139 141/141/141
f 144/144/144 143/143/143 142/142/142
f 142/142/142 143/143/143 145/145/145
f 148/148/148 147/147/147 146/146/146
f 146/146/146 147/147/147 149/149/149
f 152/152/152 151/151/151 150/150/150
f 150/150/150 151/151/151 153/153/153
f 156/156/156 155/155/155 154/154/154
f 154/154/154 155/155/155 157/157/157
f 160/160/160 159/159/159 158/158/158
f 158/158/158 159/159/159 161/161/161
f 164/164/164 163/163/163 162/162/162
f 162/162/162 163/163/163 165/165/165
f 168/168/168 167/167/167 166/166/166
f 169/169/169 167/167/167 168/168/168
f 170/170/170 167/167/167 169/169/169
f 170/170/170 171/171/171 167/167/167
f 172/172/172 171/171/171 170/170/170
