g ev6-mesh0_3
v -7.456775 2.950177 9.76768
v -7.442865 -0.574388 9.75965
v -7.456775 2.950177 9.528915
v -7.442865 -0.574388 9.536945
v -7.381965 -4.098952 9.72449
v -7.381965 -4.098952 9.57211
v -7.25 2.950177 9.409534
v -7.25 -0.574388 9.425594
v -7.043225 2.950177 9.528915
v -7.057135 -0.574388 9.536945
v -7.25 -4.098952 9.49592
v -7.118035 -4.098952 9.57211
v -7.043225 2.950177 9.76768
v -7.057135 -0.574388 9.75965
v -7.25 2.950177 9.88706
v -7.25 -0.574388 9.871
v -7.118035 -4.098952 9.72449
v -7.25 -4.098952 9.800674
v -7.25 2.950177 9.88706
v -7.25 -0.574388 9.871
v -7.456775 2.950177 9.76768
v -7.442865 -0.574388 9.75965
v -7.25 -4.098952 9.800674
v -7.381965 -4.098952 9.72449
v -7.456775 2.950177 9.528915
v -7.442865 -0.574388 9.536945
v -7.25 2.950177 9.409534
v -7.25 -0.574388 9.425594
v -7.381965 -4.098952 9.57211
v -7.25 -4.098952 9.49592
v -7.043225 2.950177 9.528915
v -7.057135 -0.574388 9.536945
v -7.043225 2.950177 9.76768
v -7.057135 -0.574388 9.75965
v -7.118035 -4.098952 9.57211
v -7.118035 -4.098952 9.72449
v -7.381965 -4.098952 9.57211
v -7.118035 -4.098952 9.57211
v -7.25 -4.098952 9.49592
v -7.381965 -4.098952 9.72449
v -7.118035 -4.098952 9.72449
v -7.25 -4.098952 9.800674
v 7.143225 2.950177 9.76768
v 7.157135 -0.574388 9.75965
v 7.143225 2.950177 9.528915
v 7.157135 -0.574388 9.536945
v 7.218035 -4.098952 9.72449
v 7.218035 -4.098952 9.57211
v 7.35 2.950177 9.409534
v 7.35 -0.574388 9.425594
v 7.556775 2.950177 9.528915
v 7.542865 -0.574388 9.536945
v 7.35 -4.098952 9.49592
v 7.481965 -4.098952 9.57211
v 7.556775 2.950177 9.76768
v 7.542865 -0.574388 9.75965
v 7.35 2.950177 9.88706
v 7.35 -0.574388 9.871
v 7.481965 -4.098952 9.72449
v 7.35 -4.098952 9.800674
v 7.35 2.950177 9.88706
v 7.35 -0.574388 9.871
v 7.143225 2.950177 9.76768
v 7.157135 -0.574388 9.75965
v 7.35 -4.098952 9.800674
v 7.218035 -4.098952 9.72449
v 7.143225 2.950177 9.528915
v 7.157135 -0.574388 9.536945
v 7.35 2.950177 9.409534
v 7.35 -0.574388 9.425594
v 7.218035 -4.098952 9.57211
v 7.35 -4.098952 9.49592
v 7.556775 2.950177 9.528915
v 7.542865 -0.574388 9.536945
v 7.556775 2.950177 9.76768
v 7.542865 -0.574388 9.75965
v 7.481965 -4.098952 9.57211
v 7.481965 -4.098952 9.72449
v 7.218035 -4.098952 9.57211
v 7.481965 -4.098952 9.57211
v 7.35 -4.098952 9.49592
v 7.218035 -4.098952 9.72449
v 7.481965 -4.098952 9.72449
v 7.35 -4.098952 9.800674
vt 0.9982792 0.1320677
vt 0.5185667 0.1355438
vt 0.9984329 0.1646981
vt 0.5183843 0.1658313
vt 0.03873405 0.1319839
vt 0.03837239 0.1527931
vt 0.9960582 0.001566434
vt 0.5155701 0.01444967
vt 0.9968543 0.03418972
vt 0.5168766 0.04476142
vt 0.0360786 0.04882831
vt 0.03735777 0.06956805
vt 0.9974905 0.06681455
vt 0.5178123 0.07503176
vt 0.9979654 0.09944063
vt 0.5183762 0.1052853
vt 0.03822736 0.09036722
vt 0.03868487 0.1111735
vt 0.9979654 0.09944063
vt 0.5183762 0.1052853
vt 0.9982792 0.1320677
vt 0.5185667 0.1355438
vt 0.03868487 0.1111735
vt 0.03873405 0.1319839
vt 0.9984329 0.1646981
vt 0.5183843 0.1658313
vt 0.9984335 0.1972557
vt 0.5178253 0.1961717
vt 0.03837239 0.1527931
vt 0.03760178 0.1735972
vt 0.9968543 0.03418972
vt 0.5168766 0.04476142
vt 0.9974905 0.06681455
vt 0.5178123 0.07503176
vt 0.03735777 0.06956805
vt 0.03822736 0.09036722
vt 0.03837239 0.1527931
vt 0.01919786 0.183332
vt 0.03760178 0.1735972
vt 0.02074159 0.1417225
vt 0.001566434 0.1722605
vt 0.002337673 0.1514563
vt 0.9982792 0.1320677
vt 0.5185667 0.1355438
vt 0.9984329 0.1646981
vt 0.5183843 0.1658313
vt 0.03873405 0.1319839
vt 0.03837239 0.1527931
vt 0.9960582 0.001566434
vt 0.5155701 0.01444967
vt 0.9968543 0.03418972
vt 0.5168766 0.04476142
vt 0.0360786 0.04882831
vt 0.03735777 0.06956805
vt 0.9974905 0.06681455
vt 0.5178123 0.07503176
vt 0.9979654 0.09944063
vt 0.5183762 0.1052853
vt 0.03822736 0.09036722
vt 0.03868487 0.1111735
vt 0.9979654 0.09944063
vt 0.5183762 0.1052853
vt 0.9982792 0.1320677
vt 0.5185667 0.1355438
vt 0.03868487 0.1111735
vt 0.03873405 0.1319839
vt 0.9984329 0.1646981
vt 0.5183843 0.1658313
vt 0.9984335 0.1972557
vt 0.5178253 0.1961717
vt 0.03837239 0.1527931
vt 0.03760178 0.1735972
vt 0.9968543 0.03418972
vt 0.5168766 0.04476142
vt 0.9974905 0.06681455
vt 0.5178123 0.07503176
vt 0.03735777 0.06956805
vt 0.03822736 0.09036722
vt 0.03837239 0.1527931
vt 0.01919786 0.183332
vt 0.03760178 0.1735972
vt 0.02074159 0.1417225
vt 0.001566434 0.1722605
vt 0.002337673 0.1514563
vn -0.9999923 -0.003946285 0
vn -0.9999923 -0.003946285 0
vn -0.9999923 -0.003946285 0
vn -0.9999923 -0.003946285 0
vn -0.9998507 -0.01727688 0
vn -0.9998507 -0.01727688 0
vn 0.4999961 -0.003946404 -0.8660187
vn 0.4999961 -0.003946404 -0.8660187
vn 0.4999961 -0.003946404 -0.8660187
vn 0.4999961 -0.003946404 -0.8660187
vn 0.4999259 -0.01727697 -0.8658958
vn 0.4999259 -0.01727697 -0.8658958
vn 0.499997 -0.00394612 0.8660182
vn 0.499997 -0.00394612 0.8660182
vn 0.499997 -0.00394612 0.8660182
vn 0.499997 -0.00394612 0.8660182
vn 0.4999257 -0.01727681 0.865896
vn 0.4999257 -0.01727681 0.865896
vn -0.4999965 -0.003946122 0.8660185
vn -0.4999965 -0.003946122 0.8660185
vn -0.4999965 -0.003946122 0.8660185
vn -0.4999965 -0.003946122 0.8660185
vn -0.4999255 -0.01727681 0.865896
vn -0.4999255 -0.01727681 0.865896
vn -0.4999968 -0.003946336 -0.8660183
vn -0.4999968 -0.003946336 -0.8660183
vn -0.4999968 -0.003946336 -0.8660183
vn -0.4999968 -0.003946336 -0.8660183
vn -0.4999261 -0.01727699 -0.8658958
vn -0.4999261 -0.01727699 -0.8658958
vn 0.9999923 -0.003946273 0
vn 0.9999923 -0.003946273 0
vn 0.9999923 -0.003946273 0
vn 0.9999923 -0.003946273 0
vn 0.9998507 -0.01727689 0
vn 0.9998507 -0.01727689 0
vn 0 -1 0
vn 0 -1 0
vn 0 -1 0
vn 0 -1 0
vn 0 -1 0
vn 0 -1 0
vn -0.9999923 -0.003946285 0
vn -0.9999923 -0.003946285 0
vn -0.9999923 -0.003946285 0
vn -0.9999923 -0.003946285 0
vn -0.9998507 -0.01727688 0
vn -0.9998507 -0.01727688 0
vn 0.4999961 -0.003946404 -0.8660187
vn 0.4999961 -0.003946404 -0.8660187
vn 0.4999961 -0.003946404 -0.8660187
vn 0.4999961 -0.003946404 -0.8660187
vn 0.4999259 -0.01727697 -0.8658958
vn 0.4999259 -0.01727697 -0.8658958
vn 0.499997 -0.00394612 0.8660182
vn 0.499997 -0.00394612 0.8660182
vn 0.499997 -0.00394612 0.8660182
vn 0.499997 -0.00394612 0.8660182
vn 0.4999257 -0.01727681 0.865896
vn 0.4999257 -0.01727681 0.865896
vn -0.4999965 -0.003946122 0.8660185
vn -0.4999965 -0.003946122 0.8660185
vn -0.4999965 -0.003946122 0.8660185
vn -0.4999965 -0.003946122 0.8660185
vn -0.4999255 -0.01727681 0.865896
vn -0.4999255 -0.01727681 0.865896
vn -0.4999968 -0.003946336 -0.8660183
vn -0.4999968 -0.003946336 -0.8660183
vn -0.4999968 -0.003946336 -0.8660183
vn -0.4999968 -0.003946336 -0.8660183
vn -0.4999261 -0.01727699 -0.8658958
vn -0.4999261 -0.01727699 -0.8658958
vn 0.9999923 -0.003946273 0
vn 0.9999923 -0.003946273 0
vn 0.9999923 -0.003946273 0
vn 0.9999923 -0.003946273 0
vn 0.9998507 -0.01727689 0
vn 0.9998507 -0.01727689 0
vn 0 -1 0
vn 0 -1 0
vn 0 -1 0
vn 0 -1 0
vn 0 -1 0
vn 0 -1 0
g ev6-mesh0_3_0
f 3/3/3 2/2/2 1/1/1
f 4/4/4 2/2/2 3/3/3
f 4/4/4 5/5/5 2/2/2
f 6/6/6 5/5/5 4/4/4
f 9/9/9 8/8/8 7/7/7
f 10/10/10 8/8/8 9/9/9
f 10/10/10 11/11/11 8/8/8
f 12/12/12 11/11/11 10/10/10
f 15/15/15 14/14/14 13/13/13
f 16/16/16 14/14/14 15/15/15
f 16/16/16 17/17/17 14/14/14
f 18/18/18 17/17/17 16/16/16
f 21/21/21 20/20/20 19/19/19
f 22/22/22 20/20/20 21/21/21
f 22/22/22 23/23/23 20/20/20
f 24/24/24 23/23/23 22/22/22
f 27/27/27 26/26/26 25/25/25
f 28/28/28 26/26/26 27/27/27
f 28/28/28 29/29/29 26/26/26
f 30/30/30 29/29/29 28/28/28
f 33/33/33 32/32/32 31/31/31
f 34/34/34 32/32/32 33/33/33
f 34/34/34 35/35/35 32/32/32
f 36/36/36 35/35/35 34/34/34
f 39/39/39 38/38/38 37/37/37
f 37/37/37 38/38/38 40/40/40
f 38/38/38 41/41/41 40/40/40
f 40/40/40 41/41/41 42/42/42
f 45/45/45 44/44/44 43/43/43
f 46/46/46 44/44/44 45/45/45
f 46/46/46 47/47/47 44/44/44
f 48/48/48 47/47/47 46/46/46
f 51/51/51 50/50/50 49/49/49
f 52/52/52 50/50/50 51/51/51
f 52/52/52 53/53/53 50/50/50
f 54/54/54 53/53/53 52/52/52
f 57/57/57 56/56/56 55/55/55
f 58/58/58 56/56/56 57/57/57
f 58/58/58 59/59/59 56/56/56
f 60/60/60 59/59/59 58/58/58
f 63/63/63 62/62/62 61/61/61
f 64/64/64 62/62/62 63/63/63
f 64/64/64 65/65/65 62/62/62
f 66/66/66 65/65/65 64/64/64
f 69/69/69 68/68/68 67/67/67
f 70/70/70 68/68/68 69/69/69
f 70/70/70 71/71/71 68/68/68
f 72/72/72 71/71/71 70/70/70
f 75/75/75 74/74/74 73/73/73
f 76/76/76 74/74/74 75/75/75
f 76/76/76 77/77/77 74/74/74
f 78/78/78 77/77/77 76/76/76
f 81/81/81 80/80/80 79/79/79
f 79/79/79 80/80/80 82/82/82
f 80/80/80 83/83/83 82/82/82
f 82/82/82 83/83/83 84/84/84
