g ev9-mesh0_1
v -38.49982 -16.49999 -39.49998
v -38.49986 -16.31148 -24.49998
v -38.49982 -26.49998 -39.49998
v -38.49986 -26.31147 -24.49998
v -38.49986 -16.12648 -9.499985
v -38.49986 -26.12646 -9.499985
v -38.49985 -15.37482 5.500015
v -38.49986 -25.37481 5.500015
v -23.49986 -25.6233 35.50001
v -8.499875 -16.4031 35.5
v -8.499875 -26.4031 35.5
v -23.49986 -15.6233 35.50001
v 36.50017 -26.31149 -24.50001
v 36.50013 -16.50001 -39.50001
v 36.50013 -26.50001 -39.50001
v 36.50017 -16.3115 -24.50001
v 36.50018 -26.12649 -9.50001
v 36.50018 -16.1265 -9.50001
v 36.50018 -25.37482 5.49999
v 36.50018 -15.37483 5.49999
v -38.49984 -26.49998 35.50002
v -23.49986 -15.6233 35.50001
v -23.49986 -25.6233 35.50001
v -38.49984 -16.49999 35.50002
v 36.50013 -16.50001 -39.50001
v 21.50015 -16.16718 -39.50001
v 36.50013 -26.50001 -39.50001
v 21.50014 -26.16718 -39.50001
v 6.500165 -15.48964 -39.5
v 6.500165 -25.48964 -39.5
v 21.50017 -26.16718 35.49998
v 36.50018 -16.50001 35.49998
v 36.50018 -26.50001 35.49998
v 21.50018 -16.16718 35.49998
v 6.50015 -25.48964 35.5
v 6.50015 -15.48964 35.5
v -38.49985 -15.37482 5.500015
v -38.49984 -15.93277 20.50001
v -38.49986 -25.37481 5.500015
v -38.49984 -25.93276 20.50001
v -38.49984 -16.49999 35.50002
v -38.49984 -26.49998 35.50002
v 6.500165 -25.48964 -39.5
v -8.49984 -16.4031 -39.5
v -8.49984 -26.4031 -39.5
v 6.500165 -15.48964 -39.5
v 36.50018 -16.50001 35.49998
v 36.50018 -15.93279 20.49999
v 36.50018 -26.50001 35.49998
v 36.50018 -25.93278 20.49999
v 36.50018 -15.37483 5.49999
v 36.50018 -25.37482 5.49999
v -8.49984 -26.4031 -39.5
v -23.49984 -15.6233 -39.49998
v -23.49984 -25.6233 -39.49998
v -8.49984 -16.4031 -39.5
v -23.49984 -25.6233 -39.49998
v -38.49982 -16.49999 -39.49998
v -38.49982 -26.49998 -39.49998
v -23.49984 -15.6233 -39.49998
v -8.499875 -26.4031 35.5
v 6.50015 -15.48964 35.5
v 6.50015 -25.48964 35.5
v -8.499875 -16.4031 35.5
v -38.49982 -16.49999 35.00002
v -38.49986 -16.31148 50
v -38.49982 -26.49998 35.00002
v -38.49986 -26.31147 50
v -38.49986 -16.12648 65
v -38.49986 -26.12646 65
v -38.49985 -15.37482 80
v -38.49986 -25.37481 80
v -23.49986 -25.6233 110
v -8.499875 -16.4031 110
v -8.499875 -26.4031 110
v -23.49986 -15.6233 110
v 36.50017 -26.31149 50
v 36.50013 -16.50001 34.99999
v 36.50013 -26.50001 34.99999
v 36.50017 -16.3115 50
v 36.50018 -26.12649 65
v 36.50018 -16.1265 65
v 36.50018 -25.37482 80
v 36.50018 -15.37483 80
v -38.49984 -26.49998 110
v -23.49986 -15.6233 110
v -23.49986 -25.6233 110
v -38.49984 -16.49999 110
v 36.50013 -16.50001 34.99999
v 21.50015 -16.16718 35
v 36.50013 -26.50001 34.99999
v 21.50014 -26.16718 35
v 6.500165 -15.48964 35
v 6.500165 -25.48964 35
v 21.50017 -26.16718 110
v 36.50018 -16.50001 110
v 36.50018 -26.50001 110
v 21.50018 -16.16718 110
v 6.50015 -25.48964 110
v 6.50015 -15.48964 110
v -38.49985 -15.37482 80
v -38.49984 -15.93277 95
v -38.49986 -25.37481 80
v -38.49984 -25.93276 95
v -38.49984 -16.49999 110
v -38.49984 -26.49998 110
v 6.500165 -25.48964 35
v -8.49984 -16.4031 35
v -8.49984 -26.4031 35
v 6.500165 -15.48964 35
v 36.50018 -16.50001 110
v 36.50018 -15.93279 95
v 36.50018 -26.50001 110
v 36.50018 -25.93278 95
v 36.50018 -15.37483 80
v 36.50018 -25.37482 80
v -8.49984 -26.4031 35
v -23.49984 -15.6233 35.00002
v -23.49984 -25.6233 35.00002
v -8.49984 -16.4031 35
v -23.49984 -25.6233 35.00002
v -38.49982 -16.49999 35.00002
v -38.49982 -26.49998 35.00002
v -23.49984 -15.6233 35.00002
v -8.499875 -26.4031 110
v 6.50015 -15.48964 110
v 6.50015 -25.48964 110
v -8.499875 -16.4031 110
vt 0.4984734 0.6870149
vt 0.3990836 0.6863906
vt 0.4984734 0.7739807
vt 0.3990836 0.7733563
vt 0.2996946 0.6857776
vt 0.2996946 0.7727432
vt 0.2003049 0.683287
vt 0.2003056 0.7702529
vt 0.3990848 0.9581884
vt 0.2996954 0.8738062
vt 0.2996954 0.9607719
vt 0.3990848 0.8712227
vt 0.1009163 0.8671023
vt 0.001526512 0.7807611
vt 0.001527273 0.867727
vt 0.1009163 0.7801366
vt 0.2003056 0.8664894
vt 0.2003056 0.7795238
vt 0.2996946 0.8639995
vt 0.2996946 0.7770338
vt 0.4984741 0.9610931
vt 0.3990848 0.8712227
vt 0.3990848 0.9581884
vt 0.4984741 0.874127
vt 0.9984735 0.6870147
vt 0.899084 0.6859123
vt 0.9984735 0.7739807
vt 0.899084 0.7728781
vt 0.7996949 0.6836677
vt 0.7996949 0.7706334
vt 0.1009163 0.9599903
vt 0.001527273 0.874127
vt 0.001526512 0.9610931
vt 0.1009163 0.8730246
vt 0.2003064 0.9577459
vt 0.2003064 0.87078
vt 0.2003049 0.683287
vt 0.1009159 0.6851357
vt 0.2003056 0.7702529
vt 0.1009159 0.7721016
vt 0.001526512 0.6870149
vt 0.001526512 0.7739807
vt 0.7996949 0.7706334
vt 0.7003055 0.6866943
vt 0.7003055 0.7736596
vt 0.7996949 0.6836677
vt 0.4984741 0.7807615
vt 0.3990844 0.7788819
vt 0.4984741 0.867727
vt 0.3990844 0.8658478
vt 0.2996946 0.7770338
vt 0.2996946 0.8639995
vt 0.7003055 0.7736596
vt 0.6009163 0.6841106
vt 0.6009163 0.7710763
vt 0.7003055 0.6866943
vt 0.6009163 0.7710763
vt 0.5015264 0.6870154
vt 0.5015272 0.7739807
vt 0.6009163 0.6841106
vt 0.2996954 0.9607719
vt 0.2003064 0.87078
vt 0.2003064 0.9577459
vt 0.2996954 0.8738062
vt 0.4984734 0.6870149
vt 0.3990836 0.6863906
vt 0.4984734 0.7739807
vt 0.3990836 0.7733563
vt 0.2996946 0.6857776
vt 0.2996946 0.7727432
vt 0.2003049 0.683287
vt 0.2003056 0.7702529
vt 0.3990848 0.9581884
vt 0.2996954 0.8738062
vt 0.2996954 0.9607719
vt 0.3990848 0.8712227
vt 0.1009163 0.8671023
vt 0.001526512 0.7807611
vt 0.001527273 0.867727
vt 0.1009163 0.7801366
vt 0.2003056 0.8664894
vt 0.2003056 0.7795238
vt 0.2996946 0.8639995
vt 0.2996946 0.7770338
vt 0.4984741 0.9610931
vt 0.3990848 0.8712227
vt 0.3990848 0.9581884
vt 0.4984741 0.874127
vt 0.9984735 0.6870147
vt 0.899084 0.6859123
vt 0.9984735 0.7739807
vt 0.899084 0.7728781
vt 0.7996949 0.6836677
vt 0.7996949 0.7706334
vt 0.1009163 0.9599903
vt 0.001527273 0.874127
vt 0.001526512 0.9610931
vt 0.1009163 0.8730246
vt 0.2003064 0.9577459
vt 0.2003064 0.87078
vt 0.2003049 0.683287
vt 0.1009159 0.6851357
vt 0.2003056 0.7702529
vt 0.1009159 0.7721016
vt 0.001526512 0.6870149
vt 0.001526512 0.7739807
vt 0.7996949 0.7706334
vt 0.7003055 0.6866943
vt 0.7003055 0.7736596
vt 0.7996949 0.6836677
vt 0.4984741 0.7807615
vt 0.3990844 0.7788819
vt 0.4984741 0.867727
vt 0.3990844 0.8658478
vt 0.2996946 0.7770338
vt 0.2996946 0.8639995
vt 0.7003055 0.7736596
vt 0.6009163 0.6841106
vt 0.6009163 0.7710763
vt 0.7003055 0.6866943
vt 0.6009163 0.7710763
vt 0.5015264 0.6870154
vt 0.5015272 0.7739807
vt 0.6009163 0.6841106
vt 0.2996954 0.9607719
vt 0.2003064 0.87078
vt 0.2003064 0.9577459
vt 0.2996954 0.8738062
vn -1 0 0
vn -1 0 0
vn -1 0 0
vn -1 0 0
vn -1 0 0
vn -1 0 0
vn -1 0 0
vn -1 0 0
vn 0 0 1
vn 0 0 1
vn 0 0 1
vn 0 0 1
vn 1 0 0
vn 1 0 0
vn 1 0 0
vn 1 0 0
vn 1 0 0
vn 1 0 0
vn 1 0 0
vn 1 0 0
vn 0 0 1
vn 0 0 1
vn 0 0 1
vn 0 0 1
vn 0 0 -1
vn 0 0 -1
vn 0 0 -1
vn 0 0 -1
vn 0 0 -1
vn 0 0 -1
vn 0 0 1
vn 0 0 1
vn 0 0 1
vn 0 0 1
vn 0 0 1
vn 0 0 1
vn -1 0 0
vn -1 0 0
vn -1 0 0
vn -1 0 0
vn -1 0 0
vn -1 0 0
vn 0 0 -1
vn 0 0 -1
vn 0 0 -1
vn 0 0 -1
vn 1 0 0
vn 1 0 0
vn 1 0 0
vn 1 0 0
vn 1 0 0
vn 1 0 0
vn 0 0 -1
vn 0 0 -1
vn 0 0 -1
vn 0 0 -1
vn 0 0 -1
vn 0 0 -1
vn 0 0 -1
vn 0 0 -1
vn 0 0 1
vn 0 0 1
vn 0 0 1
vn 0 0 1
vn -1 0 0
vn -1 0 0
vn -1 0 0
vn -1 0 0
vn -1 0 0
vn -1 0 0
vn -1 0 0
vn -1 0 0
vn 0 0 1
vn 0 0 1
vn 0 0 1
vn 0 0 1
vn 1 0 0
vn 1 0 0
vn 1 0 0
vn 1 0 0
vn 1 0 0
vn 1 0 0
vn 1 0 0
vn 1 0 0
vn 0 0 1
vn 0 0 1
vn 0 0 1
vn 0 0 1
vn 0 0 -1
vn 0 0 -1
vn 0 0 -1
vn 0 0 -1
vn 0 0 -1
vn 0 0 -1
vn 0 0 1
vn 0 0 1
vn 0 0 1
vn 0 0 1
vn 0 0 1
vn 0 0 1
vn -1 0 0
vn -1 0 0
vn -1 0 0
vn -1 0 0
vn -1 0 0
vn -1 0 0
vn 0 0 -1
vn 0 0 -1
vn 0 0 -1
vn 0 0 -1
vn 1 0 0
vn 1 0 0
vn 1 0 0
vn 1 0 0
vn 1 0 0
vn 1 0 0
vn 0 0 -1
vn 0 0 -1
vn 0 0 -1
vn 0 0 -1
vn 0 0 -1
vn 0 0 -1
vn 0 0 -1
vn 0 0 -1
vn 0 0 1
vn 0 0 1
vn 0 0 1
vn 0 0 1
g ev9-mesh0_1_0
f 3/3/3 2/2/2 1/1/1
f 4/4/4 2/2/2 3/3/3
f 4/4/4 5/5/5 2/2/2
f 6/6/6 5/5/5 4/4/4
f 6/6/6 7/7/7 5/5/5
f 8/8/8 7/7/7 6/6/6
f 11/11/11 10/10/10 9/9/9
f 9/9/9 10/10/10 12/12/12
f 15/15/15 14/14/14 13/13/13
f 13/13/13 14/14/14 16/16/16
f 13/13/13 16/16/16 17/17/17
f 17/17/17 16/16/16 18/18/18
f 17/17/17 18/18/18 19/19/19
f 19/19/19 18/18/18 20/20/20
f 23/23/23 22/22/22 21/21/21
f 21/21/21 22/22/22 24/24/24
f 27/27/27 26/26/26 25/25/25
f 28/28/28 26/26/26 27/27/27
f 28/28/28 29/29/29 26/26/26
f 30/30/30 29/29/29 28/28/28
f 33/33/33 32/32/32 31/31/31
f 31/31/31 32/32/32 34/34/34
f 31/31/31 34/34/34 35/35/35
f 35/35/35 34/34/34 36/36/36
f 39/39/39 38/38/38 37/37/37
f 40/40/40 38/38/38 39/39/39
f 40/40/40 41/41/41 38/38/38
f 42/42/42 41/41/41 40/40/40
f 45/45/45 44/44/44 43/43/43
f 43/43/43 44/44/44 46/46/46
f 49/49/49 48/48/48 47/47/47
f 50/50/50 48/48/48 49/49/49
f 50/50/50 51/51/51 48/48/48
f 52/52/52 51/51/51 50/50/50
f 55/55/55 54/54/54 53/53/53
f 53/53/53 54/54/54 56/56/56
f 59/59/59 58/58/58 57/57/57
f 57/57/57 58/58/58 60/60/60
f 63/63/63 62/62/62 61/61/61
f 61/61/61 62/62/62 64/64/64
f 67/67/67 66/66/66 65/65/65
f 68/68/68 66/66/66 67/67/67
f 68/68/68 69/69/69 66/66/66
f 70/70/70 69/69/69 68/68/68
f 70/70/70 71/71/71 69/69/69
f 72/72/72 71/71/71 70/70/70
f 75/75/75 74/74/74 73/73/73
f 73/73/73 74/74/74 76/76/76
f 79/79/79 78/78/78 77/77/77
f 77/77/77 78/78/78 80/80/80
f 77/77/77 80/80/80 81/81/81
f 81/81/81 80/80/80 82/82/82
f 81/81/81 82/82/82 83/83/83
f 83/83/83 82/82/82 84/84/84
f 87/87/87 86/86/86 85/85/85
f 85/85/85 86/86/86 88/88/88
f 91/91/91 90/90/90 89/89/89
f 92/92/92 90/90/90 91/91/91
f 92/92/92 93/93/93 90/90/90
f 94/94/94 93/93/93 92/92/92
f 97/97/97 96/96/96 95/95/95
f 95/95/95 96/96/96 98/98/98
f 95/95/95 98/98/98 99/99/99
f 99/99/99 98/98/98 100/100/100
f 103/103/103 102/102/102 101/101/101
f 104/104/104 102/102/102 103/103/103
f 104/104/104 105/105/105 102/102/102
f 106/106/106 105/105/105 104/104/104
f 109/109/109 108/108/108 107/107/107
f 107/107/107 108/108/108 110/110/110
f 113/113/113 112/112/112 111/111/111
f 114/114/114 112/112/112 113/113/113
f 114/114/114 115/115/115 112/112/112
f 116/116/116 115/115/115 114/114/114
f 119/119/119 118/118/118 117/117/117
f 117/117/117 118/118/118 120/120/120
f 123/123/123 122/122/122 121/121/121
f 121/121/121 122/122/122 124/124/124
f 127/127/127 126/126/126 125/125/125
f 125/125/125 126/126/126 128/128/128
